ply
format ascii 1.0
comment Created in Blender version 5.2.0 LTS
element vertex 374
property float x
property float y
property float z
property uchar red
property uchar green
property uchar blue
property uchar alpha
property float s
property float t
element face 156
property list uchar uint vertex_indices
end_header
-5.9999995 0 4 96 43 96 255 0 0
-3.9999995 0 4 96 43 96 255 1 0
-4.0000005 0 -4 96 43 96 255 1 1
-6.0000005 0 -4 96 43 96 255 0 1
-3.9999995 0 6 96 43 96 255 0 0
4.000001 0 5.999999 96 43 96 255 1 0
4 0 3.9999993 96 43 96 255 1 1
-3.9999995 0 4 96 43 96 255 0 1
-3.9999995 0 4 96 43 96 255 0 0
4 0 3.9999993 96 43 96 255 1 0
4 0 -4.000001 96 43 96 255 1 1
-4.0000005 0 -4 96 43 96 255 0 1
-4.0000005 0 -4 96 43 96 255 0 0
4 0 -4.000001 96 43 96 255 1 0
3.999999 0 -6.000001 96 43 96 255 1 1
-4.0000005 0 -6 96 43 96 255 0 1
4 0 3.9999993 96 43 96 255 0 0
6 0 3.999999 96 43 96 255 1 0
6 0 -4.000001 96 43 96 255 1 1
4 0 -4.000001 96 43 96 255 0 1
6 0 1.999999 96 43 96 255 0 0
22 0 1.9999976 96 43 96 255 1 0
22 0 -2.0000024 96 43 96 255 1 1
6 0 -2.000001 96 43 96 255 0 1
1 3 4 31 31 64 255 0.375 0
1 5 4 31 31 64 255 0.625 0
1 5 5 31 31 64 255 0.625 0.25
1 3 5 31 31 64 255 0.375 0.25
-1 5 5 31 31 64 255 0.625 0.5
-1 3 5 31 31 64 255 0.375 0.5
-1 5 4 31 31 64 255 0.625 0.75
-1 3 4 31 31 64 255 0.375 0.75
1 5 4 31 31 64 255 0.625 1
1 3 4 31 31 64 255 0.375 1
1 3 5 31 31 64 255 0.125 0.5
1 3 4 31 31 64 255 0.125 0.75
1 5 5 31 31 64 255 0.875 0.5
1 5 4 31 31 64 255 0.875 0.75
1 0 -1 31 31 64 255 0.375 0
1 2 -1 31 31 64 255 0.625 0
1 2 1 31 31 64 255 0.625 0.25
1 0 1 31 31 64 255 0.375 0.25
-1 2 1 31 31 64 255 0.625 0.5
-1 0 1 31 31 64 255 0.375 0.5
-1 2 -1 31 31 64 255 0.625 0.75
-1 0 -1 31 31 64 255 0.375 0.75
1 2 -1 31 31 64 255 0.625 1
1 0 -1 31 31 64 255 0.375 1
1 0 1 31 31 64 255 0.125 0.5
1 0 -1 31 31 64 255 0.125 0.75
1 2 1 31 31 64 255 0.875 0.5
1 2 -1 31 31 64 255 0.875 0.75
1 1 1 31 31 64 255 0.375 0
1 3 1 31 31 64 255 0.625 0
1 3 3 31 31 64 255 0.625 0.25
1 1 3 31 31 64 255 0.375 0.25
-1 3 3 31 31 64 255 0.625 0.5
-1 1 3 31 31 64 255 0.375 0.5
-1 3 1 31 31 64 255 0.625 0.75
-1 1 1 31 31 64 255 0.375 0.75
1 3 1 31 31 64 255 0.625 1
1 1 1 31 31 64 255 0.375 1
1 1 3 31 31 64 255 0.125 0.5
1 1 1 31 31 64 255 0.125 0.75
1 3 3 31 31 64 255 0.875 0.5
1 3 1 31 31 64 255 0.875 0.75
1 3 1 31 31 64 255 0.375 0
1 5 1 31 31 64 255 0.625 0
1 5 3 31 31 64 255 0.625 0.25
1 3 3 31 31 64 255 0.375 0.25
-1 5 3 31 31 64 255 0.625 0.5
-1 3 3 31 31 64 255 0.375 0.5
-1 5 1 31 31 64 255 0.625 0.75
-1 3 1 31 31 64 255 0.375 0.75
1 5 1 31 31 64 255 0.625 1
1 3 1 31 31 64 255 0.375 1
1 3 3 31 31 64 255 0.125 0.5
1 3 1 31 31 64 255 0.125 0.75
1 5 3 31 31 64 255 0.875 0.5
1 5 1 31 31 64 255 0.875 0.75
1 2.5 3 31 31 64 255 0.375 0
1 3.5 3 31 31 64 255 0.625 0
1 3.5 5 31 31 64 255 0.625 0.25
1 2.5 5 31 31 64 255 0.375 0.25
-1 3.5 5 31 31 64 255 0.625 0.5
-1 2.5 5 31 31 64 255 0.375 0.5
-1 3.5 3 31 31 64 255 0.625 0.75
-1 2.5 3 31 31 64 255 0.375 0.75
1 3.5 3 31 31 64 255 0.625 1
1 2.5 3 31 31 64 255 0.375 1
1 2.5 5 31 31 64 255 0.125 0.5
1 2.5 3 31 31 64 255 0.125 0.75
1 3.5 5 31 31 64 255 0.875 0.5
1 3.5 3 31 31 64 255 0.875 0.75
1.5034508 -4.0919247 -1.2414494 31 31 64 255 0.375 0
1.5034508 0.16986704 -1.2414494 31 31 64 255 0.625 0
1.5034508 0.16986704 1.2414494 31 31 64 255 0.625 0.25
1.5034508 -4.0919247 1.2414494 31 31 64 255 0.375 0.25
-1.5034508 0.16986704 1.2414494 31 31 64 255 0.625 0.5
-1.5034508 -4.0919247 1.2414494 31 31 64 255 0.375 0.5
-1.5034508 0.16986704 -1.2414494 31 31 64 255 0.625 0.75
-1.5034508 -4.0919247 -1.2414494 31 31 64 255 0.375 0.75
1.5034508 0.16986704 -1.2414494 31 31 64 255 0.625 1
1.5034508 -4.0919247 -1.2414494 31 31 64 255 0.375 1
1.5034508 -4.0919247 1.2414494 31 31 64 255 0.125 0.5
1.5034508 -4.0919247 -1.2414494 31 31 64 255 0.125 0.75
1.5034508 0.16986704 1.2414494 31 31 64 255 0.875 0.5
1.5034508 0.16986704 -1.2414494 31 31 64 255 0.875 0.75
-2.2950082 3.7563086 6.094644 160 0 127 255 0.375 0
-2.2950082 6.821165 6.094644 223 31 64 255 0.625 0
-2.2950091 6.821165 -3.6402946 223 31 64 255 0.625 0.25
-2.2950091 3.7563086 -3.6402946 223 31 64 255 0.375 0.25
2.2950082 6.821165 -3.6402946 223 31 64 255 0.625 0.5
2.2950082 3.7563086 -3.6402946 223 31 64 255 0.375 0.5
2.2950091 6.821165 6.094644 160 0 127 255 0.625 0.75
2.2950091 3.7563086 6.094644 160 0 127 255 0.375 0.75
-2.2950082 6.821165 6.094644 223 31 64 255 0.625 1
-2.2950082 3.7563086 6.094644 160 0 127 255 0.375 1
-2.2950091 3.7563086 -3.6402946 223 31 64 255 0.125 0.5
-2.2950082 3.7563086 6.094644 160 0 127 255 0.125 0.75
-2.2950091 6.821165 -3.6402946 223 31 64 255 0.875 0.5
-2.2950082 6.821165 6.094644 223 31 64 255 0.875 0.75
-0.99999994 5.654737 2.2043498 223 31 64 255 0.375 0
-0.99999994 7.6547375 2.2043498 223 31 64 255 0.625 0
-1.0000002 7.6547375 -1.2956502 223 31 64 255 0.625 0.25
-1.0000002 5.654737 -1.2956502 223 31 64 255 0.375 0.25
0.99999976 7.6547375 -1.2956502 223 31 64 255 0.625 0.5
0.99999976 5.654737 -1.2956502 223 31 64 255 0.375 0.5
1.0000001 7.6547375 2.2043495 223 31 64 255 0.625 0.75
1.0000001 5.654737 2.2043495 223 31 64 255 0.375 0.75
-0.99999994 7.6547375 2.2043498 223 31 64 255 0.625 1
-0.99999994 5.654737 2.2043498 223 31 64 255 0.375 1
-1.0000002 5.654737 -1.2956502 223 31 64 255 0.125 0.5
-0.99999994 5.654737 2.2043498 223 31 64 255 0.125 0.75
-1.0000002 7.6547375 -1.2956502 223 31 64 255 0.875 0.5
-0.99999994 7.6547375 2.2043498 223 31 64 255 0.875 0.75
1.2922181 5.1995096 4.923748 223 31 64 255 0.375 0
1.2922181 7.1995096 4.923748 160 0 127 255 0.625 0
1.2922177 7.1995096 1.4237483 160 0 127 255 0.625 0.25
1.2922177 5.1995096 1.4237483 223 31 64 255 0.375 0.25
3.2922177 7.1995096 1.4237481 160 0 127 255 0.625 0.5
3.2922177 5.1995096 1.4237481 165 8 124 255 0.375 0.5
3.292218 7.1995096 4.923748 160 0 127 255 0.625 0.75
3.292218 5.1995096 4.923748 160 0 127 255 0.375 0.75
1.2922181 7.1995096 4.923748 160 0 127 255 0.625 1
1.2922181 5.1995096 4.923748 223 31 64 255 0.375 1
1.2922177 5.1995096 1.4237483 223 31 64 255 0.125 0.5
1.2922181 5.1995096 4.923748 223 31 64 255 0.125 0.75
1.2922177 7.1995096 1.4237483 160 0 127 255 0.875 0.5
1.2922181 7.1995096 4.923748 160 0 127 255 0.875 0.75
1.4779706 5.054317 0.5872869 223 31 64 255 0.375 0
1.4779706 7.054317 0.5872869 223 31 64 255 0.625 0
1.4779702 7.054317 -2.912713 223 31 64 255 0.625 0.25
1.4779702 5.054317 -2.912713 223 31 64 255 0.375 0.25
3.4779701 7.054317 -2.9127135 223 31 64 255 0.625 0.5
3.4779701 5.054317 -2.9127135 223 31 64 255 0.375 0.5
3.4779706 7.054317 0.5872867 223 31 64 255 0.625 0.75
3.4779706 5.054317 0.5872867 223 31 64 255 0.375 0.75
1.4779706 7.054317 0.5872869 223 31 64 255 0.625 1
1.4779706 5.054317 0.5872869 223 31 64 255 0.375 1
1.4779702 5.054317 -2.912713 223 31 64 255 0.125 0.5
1.4779706 5.054317 0.5872869 223 31 64 255 0.125 0.75
1.4779702 7.054317 -2.912713 223 31 64 255 0.875 0.5
1.4779706 7.054317 0.5872869 223 31 64 255 0.875 0.75
0.8945725 2.9444823 6.090422 223 31 64 255 0.375 0
0.8945725 4.9444823 6.090422 223 31 64 255 0.625 0
0.8945722 4.9444823 2.5904222 223 31 64 255 0.625 0.25
0.8945722 2.9444823 2.5904222 223 31 64 255 0.375 0.25
2.894572 4.9444823 2.5904222 160 0 127 255 0.625 0.5
2.894572 2.9444823 2.5904222 160 0 127 255 0.375 0.5
2.8945725 4.9444823 6.0904217 160 0 127 255 0.625 0.75
2.8945725 2.9444823 6.0904217 160 0 127 255 0.375 0.75
0.8945725 4.9444823 6.090422 223 31 64 255 0.625 1
0.8945725 2.9444823 6.090422 223 31 64 255 0.375 1
0.8945722 2.9444823 2.5904222 223 31 64 255 0.125 0.5
0.8945725 2.9444823 6.090422 223 31 64 255 0.125 0.75
0.8945722 4.9444823 2.5904222 223 31 64 255 0.875 0.5
0.8945725 4.9444823 6.090422 223 31 64 255 0.875 0.75
0.7353327 3.544475 3.4705455 223 31 64 255 0.375 0
0.7353327 5.544475 3.4705455 223 31 64 255 0.625 0
0.7353324 5.544475 -0.02945447 223 31 64 255 0.625 0.25
0.7353324 3.544475 -0.02945447 223 31 64 255 0.375 0.25
2.7353325 5.544475 -0.029454589 223 31 64 255 0.625 0.5
2.7353325 3.544475 -0.029454589 223 31 64 255 0.375 0.5
2.7353327 5.544475 3.4705453 223 31 64 255 0.625 0.75
2.7353327 3.544475 3.4705453 223 31 64 255 0.375 0.75
0.7353327 5.544475 3.4705455 223 31 64 255 0.625 1
0.7353327 3.544475 3.4705455 223 31 64 255 0.375 1
0.7353324 3.544475 -0.02945447 223 31 64 255 0.125 0.5
0.7353327 3.544475 3.4705455 223 31 64 255 0.125 0.75
0.7353324 5.544475 -0.02945447 223 31 64 255 0.875 0.5
0.7353327 5.544475 3.4705455 223 31 64 255 0.875 0.75
1.8564272 4.0805016 -0.5101141 223 31 64 255 0.375 0
1.8564272 6.0805016 -0.5101141 223 31 64 255 0.625 0
1.8564268 6.0805016 -4.010114 223 31 64 255 0.625 0.25
1.8564268 4.0805016 -4.010114 223 31 64 255 0.375 0.25
3.8564267 6.0805016 -4.0101147 160 0 127 255 0.625 0.5
3.8564267 4.0805016 -4.0101147 160 0 127 255 0.375 0.5
3.856427 6.0805016 -0.5101143 160 0 127 255 0.625 0.75
3.856427 4.0805016 -0.5101143 160 0 127 255 0.375 0.75
1.8564272 6.0805016 -0.5101141 223 31 64 255 0.625 1
1.8564272 4.0805016 -0.5101141 223 31 64 255 0.375 1
1.8564268 4.0805016 -4.010114 223 31 64 255 0.125 0.5
1.8564272 4.0805016 -0.5101141 223 31 64 255 0.125 0.75
1.8564268 6.0805016 -4.010114 223 31 64 255 0.875 0.5
1.8564272 6.0805016 -0.5101141 223 31 64 255 0.875 0.75
-3.3977823 5.1366005 -2.5990484 223 31 64 255 0.375 0
-3.3977823 3.1366036 -2.6026616 223 31 64 255 0.625 0
-3.397782 3.1302807 0.89733243 223 31 64 255 0.625 0.25
-3.397782 5.1302776 0.90094566 223 31 64 255 0.375 0.25
-1.3977822 3.1302807 0.8973323 223 31 64 255 0.625 0.5
-1.3977822 5.1302776 0.9009455 223 31 64 255 0.375 0.5
-1.3977826 3.1366036 -2.6026616 223 31 64 255 0.625 0.75
-1.3977826 5.1366005 -2.5990484 223 31 64 255 0.375 0.75
-3.3977823 3.1366036 -2.6026616 223 31 64 255 0.625 1
-3.3977823 5.1366005 -2.5990484 223 31 64 255 0.375 1
-3.397782 5.1302776 0.90094566 223 31 64 255 0.125 0.5
-3.3977823 5.1366005 -2.5990484 223 31 64 255 0.125 0.75
-3.397782 3.1302807 0.89733243 223 31 64 255 0.875 0.5
-3.3977823 3.1366036 -2.6026616 223 31 64 255 0.875 0.75
-3.2120295 5.2739596 1.7376676 223 31 64 255 0.375 0
-3.2120295 3.2739627 1.7340543 223 31 64 255 0.625 0
-3.2120292 3.2676399 5.234049 223 31 64 255 0.625 0.25
-3.2120292 5.2676363 5.237662 223 31 64 255 0.375 0.25
-1.212029 3.2676399 5.2340484 223 31 64 255 0.625 0.5
-1.212029 5.2676363 5.2376614 223 31 64 255 0.375 0.5
-1.2120293 3.2739627 1.7340542 223 31 64 255 0.625 0.75
-1.2120293 5.2739596 1.7376673 223 31 64 255 0.375 0.75
-3.2120295 3.2739627 1.7340543 223 31 64 255 0.625 1
-3.2120295 5.2739596 1.7376676 223 31 64 255 0.375 1
-3.2120292 5.2676363 5.237662 223 31 64 255 0.125 0.5
-3.2120295 5.2739596 1.7376676 223 31 64 255 0.125 0.75
-3.2120292 3.2676399 5.234049 223 31 64 255 0.875 0.5
-3.2120295 3.2739627 1.7340543 223 31 64 255 0.875 0.75
-3.795428 7.393731 -3.7616472 160 0 127 255 0.375 0
-3.795428 5.3937345 -3.7652607 160 0 127 255 0.625 0
-3.7954278 5.3874116 -0.26526654 215 29 76 255 0.625 0.25
-3.7954278 7.3874083 -0.26165342 160 0 127 255 0.375 0.25
-1.7954278 5.3874116 -0.26526678 223 31 64 255 0.625 0.5
-1.7954278 7.3874083 -0.26165366 160 0 127 255 0.375 0.5
-1.7954282 5.3937345 -3.7652612 160 0 127 255 0.625 0.75
-1.7954282 7.393731 -3.7616477 160 0 127 255 0.375 0.75
-3.795428 5.3937345 -3.7652607 160 0 127 255 0.625 1
-3.795428 7.393731 -3.7616472 160 0 127 255 0.375 1
-3.7954278 7.3874083 -0.26165342 160 0 127 255 0.125 0.5
-3.795428 7.393731 -3.7616472 160 0 127 255 0.125 0.75
-3.7954278 5.3874116 -0.26526654 215 29 76 255 0.875 0.5
-3.795428 5.3937345 -3.7652607 160 0 127 255 0.875 0.75
-3.9546678 6.789007 -1.142859 223 31 64 255 0.375 0
-3.9546678 4.7890105 -1.1464722 223 31 64 255 0.625 0
-3.9546676 4.782687 2.353522 223 31 64 255 0.625 0.25
-3.9546676 6.7826843 2.3571353 223 31 64 255 0.375 0.25
-1.9546674 4.782687 2.3535218 223 31 64 255 0.625 0.5
-1.9546674 6.7826843 2.357135 223 31 64 255 0.375 0.5
-1.9546678 4.7890105 -1.1464722 223 31 64 255 0.625 0.75
-1.9546678 6.789007 -1.142859 223 31 64 255 0.375 0.75
-3.9546678 4.7890105 -1.1464722 223 31 64 255 0.625 1
-3.9546678 6.789007 -1.142859 223 31 64 255 0.375 1
-3.9546676 6.7826843 2.3571353 223 31 64 255 0.125 0.5
-3.9546678 6.789007 -1.142859 223 31 64 255 0.125 0.75
-3.9546676 4.782687 2.353522 223 31 64 255 0.875 0.5
-3.9546678 4.7890105 -1.1464722 223 31 64 255 0.875 0.75
-2.8335724 6.2457914 2.836826 223 31 64 255 0.375 0
-2.8335724 4.2457943 2.8332129 223 31 64 255 0.625 0
-2.8335721 4.2394714 6.3332076 223 31 64 255 0.625 0.25
-2.8335721 6.239468 6.33682 223 31 64 255 0.375 0.25
-0.8335722 4.2394714 6.333207 223 31 64 255 0.625 0.5
-0.8335722 6.239468 6.3368196 223 31 64 255 0.375 0.5
-0.8335725 4.2457943 2.8332129 223 31 64 255 0.625 0.75
-0.8335725 6.2457914 2.8368258 223 31 64 255 0.375 0.75
-2.8335724 4.2457943 2.8332129 223 31 64 255 0.625 1
-2.8335724 6.2457914 2.836826 223 31 64 255 0.375 1
-2.8335721 6.239468 6.33682 223 31 64 255 0.125 0.5
-2.8335724 6.2457914 2.836826 223 31 64 255 0.125 0.75
-2.8335721 4.2394714 6.3332076 223 31 64 255 0.875 0.5
-2.8335724 4.2457943 2.8332129 223 31 64 255 0.875 0.75
0.13170864 5.0537434 6.6607933 218 30 70 255 0.375 0
0.13170864 7.0537434 6.6607933 223 31 64 255 0.625 0
-3.3682914 7.0537434 6.660794 223 31 64 255 0.625 0.25
-3.3682914 5.0537434 6.660794 223 31 64 255 0.375 0.25
-3.3682916 7.0537434 4.660794 223 31 64 255 0.625 0.5
-3.3682916 5.0537434 4.660794 223 31 64 255 0.375 0.5
0.13170846 7.0537434 4.6607933 223 31 64 255 0.625 0.75
0.13170846 5.0537434 4.6607933 223 31 64 255 0.375 0.75
0.13170864 7.0537434 6.6607933 223 31 64 255 0.625 1
0.13170864 5.0537434 6.6607933 218 30 70 255 0.375 1
-3.3682914 5.0537434 6.660794 223 31 64 255 0.125 0.5
0.13170864 5.0537434 6.6607933 218 30 70 255 0.125 0.75
-3.3682914 7.0537434 6.660794 223 31 64 255 0.875 0.5
0.13170864 7.0537434 6.6607933 223 31 64 255 0.875 0.75
2.78373 3.1664128 6.660793 160 0 127 255 0.375 0
2.78373 5.166413 6.660793 160 0 127 255 0.625 0
-0.71627 5.166413 6.6607933 160 0 127 255 0.625 0.25
-0.71627 3.1664128 6.6607933 160 0 127 255 0.375 0.25
-0.7162702 5.166413 4.6607933 223 31 64 255 0.625 0.5
-0.7162702 3.1664128 4.6607933 223 31 64 255 0.375 0.5
2.7837298 5.166413 4.660793 160 0 127 255 0.625 0.75
2.7837298 3.1664128 4.660793 223 31 64 255 0.375 0.75
2.78373 5.166413 6.660793 160 0 127 255 0.625 1
2.78373 3.1664128 6.660793 160 0 127 255 0.375 1
-0.71627 3.1664128 6.6607933 160 0 127 255 0.125 0.5
2.78373 3.1664128 6.660793 160 0 127 255 0.125 0.75
-0.71627 5.166413 6.6607933 160 0 127 255 0.875 0.5
2.78373 5.166413 6.660793 160 0 127 255 0.875 0.75
2.7837293 4.6909146 -2.8224454 223 31 64 255 0.375 0
2.7837293 6.6909146 -2.8224454 223 31 64 255 0.625 0
-0.71627086 6.6909146 -2.8224444 223 31 64 255 0.625 0.25
-0.71627086 4.6909146 -2.8224444 223 31 64 255 0.375 0.25
-0.71627104 6.6909146 -4.8224444 223 31 64 255 0.625 0.5
-0.71627104 4.6909146 -4.8224444 223 31 64 255 0.375 0.5
2.783729 6.6909146 -4.822445 223 31 64 255 0.625 0.75
2.783729 4.6909146 -4.822445 223 31 64 255 0.375 0.75
2.7837293 6.6909146 -2.8224454 223 31 64 255 0.625 1
2.7837293 4.6909146 -2.8224454 223 31 64 255 0.375 1
-0.71627086 4.6909146 -2.8224444 223 31 64 255 0.125 0.5
2.7837293 4.6909146 -2.8224454 223 31 64 255 0.125 0.75
-0.71627086 6.6909146 -2.8224444 223 31 64 255 0.875 0.5
2.7837293 6.6909146 -2.8224454 223 31 64 255 0.875 0.75
0.3991875 3.4562669 -2.1997197 223 31 64 255 0.375 0
0.3991875 5.456267 -2.1997197 223 31 64 255 0.625 0
-3.1008127 5.456267 -2.1997192 223 31 64 255 0.625 0.25
-3.1008127 3.4562669 -2.1997192 223 31 64 255 0.375 0.25
-3.100813 5.456267 -4.199719 223 31 64 255 0.625 0.5
-3.100813 3.4562669 -4.199719 223 31 64 255 0.375 0.5
0.39918733 5.456267 -4.1997194 223 31 64 255 0.625 0.75
0.39918733 3.4562669 -4.1997194 223 31 64 255 0.375 0.75
0.3991875 5.456267 -2.1997197 223 31 64 255 0.625 1
0.3991875 3.4562669 -2.1997197 223 31 64 255 0.375 1
-3.1008127 3.4562669 -2.1997192 223 31 64 255 0.125 0.5
0.3991875 3.4562669 -2.1997197 223 31 64 255 0.125 0.75
-3.1008127 5.456267 -2.1997192 223 31 64 255 0.875 0.5
0.3991875 5.456267 -2.1997197 223 31 64 255 0.875 0.75
-1.1760242 6.1372857 4.6090403 0 0 0 0 0.375 0
-1.1760242 8.137285 4.6090403 223 31 64 255 0.625 0
-1.1760246 8.137285 0.2996593 223 31 64 255 0.625 0.25
-1.1760246 6.1372857 0.2996593 0 0 0 0 0.375 0.25
0.8239753 8.137285 0.29965913 223 31 64 255 0.625 0.5
0.8239753 6.1372857 0.29965913 0 0 0 0 0.375 0.5
0.8239757 8.137285 4.6090403 223 31 64 255 0.625 0.75
0.8239757 6.1372857 4.6090403 0 0 0 0 0.375 0.75
-1.1760242 8.137285 4.6090403 223 31 64 255 0.625 1
-1.1760242 6.1372857 4.6090403 0 0 0 0 0.375 1
-1.1760246 6.1372857 0.2996593 0 0 0 0 0.125 0.5
-1.1760242 6.1372857 4.6090403 0 0 0 0 0.125 0.75
-1.1760246 8.137285 0.2996593 223 31 64 255 0.875 0.5
-1.1760242 8.137285 4.6090403 223 31 64 255 0.875 0.75
-2.1439745 6.457798 1.5535326 0 0 0 0 0.375 0
-2.1439745 8.457798 1.5535326 223 31 64 255 0.625 0
-2.1439748 8.457798 -2.7558482 223 31 64 255 0.625 0.25
-2.1439748 6.457798 -2.7558482 0 0 0 0 0.375 0.25
-0.14397502 8.457798 -2.7558484 223 31 64 255 0.625 0.5
-0.14397502 6.457798 -2.7558484 0 0 0 0 0.375 0.5
-0.14397465 8.457798 1.5535324 223 31 64 255 0.625 0.75
-0.14397465 6.457798 1.5535324 0 0 0 0 0.375 0.75
-2.1439745 8.457798 1.5535326 223 31 64 255 0.625 1
-2.1439745 6.457798 1.5535326 0 0 0 0 0.375 1
-2.1439748 6.457798 -2.7558482 0 0 0 0 0.125 0.5
-2.1439745 6.457798 1.5535326 0 0 0 0 0.125 0.75
-2.1439748 8.457798 -2.7558482 223 31 64 255 0.875 0.5
-2.1439745 8.457798 1.5535326 223 31 64 255 0.875 0.75
-0.07205092 5.6769056 1.5535324 0 0 0 0 0.375 0
-0.07205092 7.6769056 1.5535324 223 31 64 255 0.625 0
-0.0720513 7.6769056 -2.7558484 223 31 64 255 0.625 0.25
-0.0720513 5.6769056 -2.7558484 0 0 0 0 0.375 0.25
1.9279487 7.6769056 -2.7558486 223 31 64 255 0.625 0.5
1.9279487 5.6769056 -2.7558486 0 0 0 0 0.375 0.5
1.9279491 7.6769056 1.5535322 223 31 64 255 0.625 0.75
1.9279491 5.6769056 1.5535322 0 0 0 0 0.375 0.75
-0.07205092 7.6769056 1.5535324 223 31 64 255 0.625 1
-0.07205092 5.6769056 1.5535324 0 0 0 0 0.375 1
-0.0720513 5.6769056 -2.7558484 0 0 0 0 0.125 0.5
-0.07205092 5.6769056 1.5535324 0 0 0 0 0.125 0.75
-0.0720513 7.6769056 -2.7558484 223 31 64 255 0.875 0.5
-0.07205092 7.6769056 1.5535324 223 31 64 255 0.875 0.75
4 0 1 2 3
4 4 5 6 7
4 8 9 10 11
4 12 13 14 15
4 16 17 18 19
4 20 21 22 23
4 24 25 26 27
4 27 26 28 29
4 29 28 30 31
4 31 30 32 33
4 34 29 31 35
4 28 36 37 30
4 38 39 40 41
4 41 40 42 43
4 43 42 44 45
4 45 44 46 47
4 48 43 45 49
4 42 50 51 44
4 52 53 54 55
4 55 54 56 57
4 57 56 58 59
4 59 58 60 61
4 62 57 59 63
4 56 64 65 58
4 66 67 68 69
4 69 68 70 71
4 71 70 72 73
4 73 72 74 75
4 76 71 73 77
4 70 78 79 72
4 80 81 82 83
4 83 82 84 85
4 85 84 86 87
4 87 86 88 89
4 90 85 87 91
4 84 92 93 86
4 94 95 96 97
4 97 96 98 99
4 99 98 100 101
4 101 100 102 103
4 104 99 101 105
4 98 106 107 100
4 108 109 110 111
4 111 110 112 113
4 113 112 114 115
4 115 114 116 117
4 118 113 115 119
4 112 120 121 114
4 122 123 124 125
4 125 124 126 127
4 127 126 128 129
4 129 128 130 131
4 132 127 129 133
4 126 134 135 128
4 136 137 138 139
4 139 138 140 141
4 141 140 142 143
4 143 142 144 145
4 146 141 143 147
4 140 148 149 142
4 150 151 152 153
4 153 152 154 155
4 155 154 156 157
4 157 156 158 159
4 160 155 157 161
4 154 162 163 156
4 164 165 166 167
4 167 166 168 169
4 169 168 170 171
4 171 170 172 173
4 174 169 171 175
4 168 176 177 170
4 178 179 180 181
4 181 180 182 183
4 183 182 184 185
4 185 184 186 187
4 188 183 185 189
4 182 190 191 184
4 192 193 194 195
4 195 194 196 197
4 197 196 198 199
4 199 198 200 201
4 202 197 199 203
4 196 204 205 198
4 206 207 208 209
4 209 208 210 211
4 211 210 212 213
4 213 212 214 215
4 216 211 213 217
4 210 218 219 212
4 220 221 222 223
4 223 222 224 225
4 225 224 226 227
4 227 226 228 229
4 230 225 227 231
4 224 232 233 226
4 234 235 236 237
4 237 236 238 239
4 239 238 240 241
4 241 240 242 243
4 244 239 241 245
4 238 246 247 240
4 248 249 250 251
4 251 250 252 253
4 253 252 254 255
4 255 254 256 257
4 258 253 255 259
4 252 260 261 254
4 262 263 264 265
4 265 264 266 267
4 267 266 268 269
4 269 268 270 271
4 272 267 269 273
4 266 274 275 268
4 276 277 278 279
4 279 278 280 281
4 281 280 282 283
4 283 282 284 285
4 286 281 283 287
4 280 288 289 282
4 290 291 292 293
4 293 292 294 295
4 295 294 296 297
4 297 296 298 299
4 300 295 297 301
4 294 302 303 296
4 304 305 306 307
4 307 306 308 309
4 309 308 310 311
4 311 310 312 313
4 314 309 311 315
4 308 316 317 310
4 318 319 320 321
4 321 320 322 323
4 323 322 324 325
4 325 324 326 327
4 328 323 325 329
4 322 330 331 324
4 332 333 334 335
4 335 334 336 337
4 337 336 338 339
4 339 338 340 341
4 342 337 339 343
4 336 344 345 338
4 346 347 348 349
4 349 348 350 351
4 351 350 352 353
4 353 352 354 355
4 356 351 353 357
4 350 358 359 352
4 360 361 362 363
4 363 362 364 365
4 365 364 366 367
4 367 366 368 369
4 370 365 367 371
4 364 372 373 366
