ply
format ascii 1.0
comment Created in Blender version 5.2.0 LTS
element vertex 374
property float x
property float y
property float z
property uchar red
property uchar green
property uchar blue
property uchar alpha
property float s
property float t
element face 156
property list uchar uint vertex_indices
end_header
2.6666675 0 3.999999 96 43 96 255 0 0
0.66666734 0 4 96 43 96 255 1 0
0.6666647 0 -4.0000005 96 43 96 255 1 1
2.6666646 0 -4.000001 96 43 96 255 0 1
0.666668 0 6 96 43 96 255 0 0
-7.333332 0 6.0000024 96 43 96 255 1 0
-7.333333 0 4.0000024 96 43 96 255 1 1
0.66666734 0 4 96 43 96 255 0 1
0.66666734 0 4 96 43 96 255 0 0
-7.333333 0 4.0000024 96 43 96 255 1 0
-7.333335 0 -3.9999976 96 43 96 255 1 1
0.6666647 0 -4.0000005 96 43 96 255 0 1
0.6666647 0 -4.0000005 96 43 96 255 0 0
-7.333335 0 -3.9999976 96 43 96 255 1 0
-7.333336 0 -5.9999976 96 43 96 255 1 1
0.6666641 0 -6 96 43 96 255 0 1
-7.333333 0 4.0000024 96 43 96 255 0 0
-9.333333 0 4.0000033 96 43 96 255 1 0
-9.333335 0 -3.9999971 96 43 96 255 1 1
-7.333335 0 -3.9999976 96 43 96 255 0 1
-9.333333 0 2.0000029 96 43 96 255 0 0
-25.333334 0 2.000008 96 43 96 255 1 0
-25.333334 0 -1.9999918 96 43 96 255 1 1
-9.333335 0 -1.999997 96 43 96 255 0 1
-4.333333 3 4 31 31 64 255 0.375 0
-4.333333 5 4 31 31 64 255 0.625 0
-4.333333 5 5 31 31 64 255 0.625 0.25
-4.333333 3 5 31 31 64 255 0.375 0.25
-2.333333 5 5 31 31 64 255 0.625 0.5
-2.333333 3 5 31 31 64 255 0.375 0.5
-2.333333 5 3.9999998 31 31 64 255 0.625 0.75
-2.333333 3 3.9999998 31 31 64 255 0.375 0.75
-4.333333 5 4 31 31 64 255 0.625 1
-4.333333 3 4 31 31 64 255 0.375 1
-4.333333 3 5 31 31 64 255 0.125 0.5
-4.333333 3 4 31 31 64 255 0.125 0.75
-4.333333 5 5 31 31 64 255 0.875 0.5
-4.333333 5 4 31 31 64 255 0.875 0.75
-4.333334 0 -1 31 31 64 255 0.375 0
-4.333334 2 -1 31 31 64 255 0.625 0
-4.3333335 2 1.0000002 31 31 64 255 0.625 0.25
-4.3333335 0 1.0000002 31 31 64 255 0.375 0.25
-2.3333335 2 0.99999976 31 31 64 255 0.625 0.5
-2.3333335 0 0.99999976 31 31 64 255 0.375 0.5
-2.333334 2 -1 31 31 64 255 0.625 0.75
-2.333334 0 -1 31 31 64 255 0.375 0.75
-4.333334 2 -1 31 31 64 255 0.625 1
-4.333334 0 -1 31 31 64 255 0.375 1
-4.3333335 0 1.0000002 31 31 64 255 0.125 0.5
-4.333334 0 -1 31 31 64 255 0.125 0.75
-4.3333335 2 1.0000002 31 31 64 255 0.875 0.5
-4.333334 2 -1 31 31 64 255 0.875 0.75
-4.3333335 1 1.0000002 31 31 64 255 0.375 0
-4.3333335 3 1.0000002 31 31 64 255 0.625 0
-4.333333 3 3 31 31 64 255 0.625 0.25
-4.333333 1 3 31 31 64 255 0.375 0.25
-2.3333333 3 3 31 31 64 255 0.625 0.5
-2.3333333 1 3 31 31 64 255 0.375 0.5
-2.3333335 3 0.99999976 31 31 64 255 0.625 0.75
-2.3333335 1 0.99999976 31 31 64 255 0.375 0.75
-4.3333335 3 1.0000002 31 31 64 255 0.625 1
-4.3333335 1 1.0000002 31 31 64 255 0.375 1
-4.333333 1 3 31 31 64 255 0.125 0.5
-4.3333335 1 1.0000002 31 31 64 255 0.125 0.75
-4.333333 3 3 31 31 64 255 0.875 0.5
-4.3333335 3 1.0000002 31 31 64 255 0.875 0.75
-4.3333335 3 1.0000002 31 31 64 255 0.375 0
-4.3333335 5 1.0000002 31 31 64 255 0.625 0
-4.333333 5 3 31 31 64 255 0.625 0.25
-4.333333 3 3 31 31 64 255 0.375 0.25
-2.3333333 5 3 31 31 64 255 0.625 0.5
-2.3333333 3 3 31 31 64 255 0.375 0.5
-2.3333335 5 0.99999976 31 31 64 255 0.625 0.75
-2.3333335 3 0.99999976 31 31 64 255 0.375 0.75
-4.3333335 5 1.0000002 31 31 64 255 0.625 1
-4.3333335 3 1.0000002 31 31 64 255 0.375 1
-4.333333 3 3 31 31 64 255 0.125 0.5
-4.3333335 3 1.0000002 31 31 64 255 0.125 0.75
-4.333333 5 3 31 31 64 255 0.875 0.5
-4.3333335 5 1.0000002 31 31 64 255 0.875 0.75
-4.333333 2.5 3 31 31 64 255 0.375 0
-4.333333 3.5 3 31 31 64 255 0.625 0
-4.333333 3.5 5 31 31 64 255 0.625 0.25
-4.333333 2.5 5 31 31 64 255 0.375 0.25
-2.333333 3.5 5 31 31 64 255 0.625 0.5
-2.333333 2.5 5 31 31 64 255 0.375 0.5
-2.3333333 3.5 3 31 31 64 255 0.625 0.75
-2.3333333 2.5 3 31 31 64 255 0.375 0.75
-4.333333 3.5 3 31 31 64 255 0.625 1
-4.333333 2.5 3 31 31 64 255 0.375 1
-4.333333 2.5 5 31 31 64 255 0.125 0.5
-4.333333 2.5 3 31 31 64 255 0.125 0.75
-4.333333 3.5 5 31 31 64 255 0.875 0.5
-4.333333 3.5 3 31 31 64 255 0.875 0.75
-4.836785 -4.0919247 -1.2414489 31 31 64 255 0.375 0
-4.836785 0.16986704 -1.2414489 31 31 64 255 0.625 0
-4.8367844 0.16986704 1.2414496 31 31 64 255 0.625 0.25
-4.8367844 -4.0919247 1.2414496 31 31 64 255 0.375 0.25
-1.8298829 0.16986704 1.2414491 31 31 64 255 0.625 0.5
-1.8298829 -4.0919247 1.2414491 31 31 64 255 0.375 0.5
-1.8298832 0.16986704 -1.2414498 31 31 64 255 0.625 0.75
-1.8298832 -4.0919247 -1.2414498 31 31 64 255 0.375 0.75
-4.836785 0.16986704 -1.2414489 31 31 64 255 0.625 1
-4.836785 -4.0919247 -1.2414489 31 31 64 255 0.375 1
-4.8367844 -4.0919247 1.2414496 31 31 64 255 0.125 0.5
-4.836785 -4.0919247 -1.2414489 31 31 64 255 0.125 0.75
-4.8367844 0.16986704 1.2414496 31 31 64 255 0.875 0.5
-4.836785 0.16986704 -1.2414489 31 31 64 255 0.875 0.75
-1.0383279 3.7563086 -3.6402957 160 0 127 255 0.375 0
-1.0383279 6.821165 -3.6402957 223 31 64 255 0.625 0
-1.0383222 6.821165 6.0946426 223 31 64 255 0.625 0.25
-1.0383222 3.7563086 6.0946426 223 31 64 255 0.375 0.25
-5.62834 6.821165 6.0946455 223 31 64 255 0.625 0.5
-5.62834 3.7563086 6.0946455 223 31 64 255 0.375 0.5
-5.6283455 6.821165 -3.640293 160 0 127 255 0.625 0.75
-5.6283455 3.7563086 -3.640293 160 0 127 255 0.375 0.75
-1.0383279 6.821165 -3.6402957 223 31 64 255 0.625 1
-1.0383279 3.7563086 -3.6402957 160 0 127 255 0.375 1
-1.0383222 3.7563086 6.0946426 223 31 64 255 0.125 0.5
-1.0383279 3.7563086 -3.6402957 160 0 127 255 0.125 0.75
-1.0383222 6.821165 6.0946426 223 31 64 255 0.875 0.5
-1.0383279 6.821165 -3.6402957 223 31 64 255 0.875 0.75
-2.3333342 5.654737 0.24999958 223 31 64 255 0.375 0
-2.3333342 7.6547375 0.24999958 223 31 64 255 0.625 0
-2.3333323 7.6547375 3.7499995 223 31 64 255 0.625 0.25
-2.3333323 5.654737 3.7499995 223 31 64 255 0.375 0.25
-4.333332 7.6547375 3.7500005 223 31 64 255 0.625 0.5
-4.333332 5.654737 3.7500005 223 31 64 255 0.375 0.5
-4.3333344 7.6547375 0.25000066 223 31 64 255 0.625 0.75
-4.3333344 5.654737 0.25000066 223 31 64 255 0.375 0.75
-2.3333342 7.6547375 0.24999958 223 31 64 255 0.625 1
-2.3333342 5.654737 0.24999958 223 31 64 255 0.375 1
-2.3333323 5.654737 3.7499995 223 31 64 255 0.125 0.5
-2.3333342 5.654737 0.24999958 223 31 64 255 0.125 0.75
-2.3333323 7.6547375 3.7499995 223 31 64 255 0.875 0.5
-2.3333342 7.6547375 0.24999958 223 31 64 255 0.875 0.75
-4.6255536 5.1995096 -2.4693978 223 31 64 255 0.375 0
-4.6255536 7.1995096 -2.4693978 160 0 127 255 0.625 0
-4.6255517 7.1995096 1.0306021 160 0 127 255 0.625 0.25
-4.6255517 5.1995096 1.0306021 223 31 64 255 0.375 0.25
-6.625551 7.1995096 1.0306032 160 0 127 255 0.625 0.5
-6.625551 5.1995096 1.0306032 165 8 124 255 0.375 0.5
-6.6255536 7.1995096 -2.4693966 160 0 127 255 0.625 0.75
-6.6255536 5.1995096 -2.4693966 160 0 127 255 0.375 0.75
-4.6255536 7.1995096 -2.4693978 160 0 127 255 0.625 1
-4.6255536 5.1995096 -2.4693978 223 31 64 255 0.375 1
-4.6255517 5.1995096 1.0306021 223 31 64 255 0.125 0.5
-4.6255536 5.1995096 -2.4693978 223 31 64 255 0.125 0.75
-4.6255517 7.1995096 1.0306021 160 0 127 255 0.875 0.5
-4.6255536 7.1995096 -2.4693978 160 0 127 255 0.875 0.75
-4.811304 5.054317 1.8670635 223 31 64 255 0.375 0
-4.811304 7.054317 1.8670635 223 31 64 255 0.625 0
-4.811302 7.054317 5.3670635 223 31 64 255 0.625 0.25
-4.811302 5.054317 5.3670635 223 31 64 255 0.375 0.25
-6.811302 7.054317 5.3670645 223 31 64 255 0.625 0.5
-6.811302 5.054317 5.3670645 223 31 64 255 0.375 0.5
-6.811304 7.054317 1.8670647 223 31 64 255 0.625 0.75
-6.811304 5.054317 1.8670647 223 31 64 255 0.375 0.75
-4.811304 7.054317 1.8670635 223 31 64 255 0.625 1
-4.811304 5.054317 1.8670635 223 31 64 255 0.375 1
-4.811302 5.054317 5.3670635 223 31 64 255 0.125 0.5
-4.811304 5.054317 1.8670635 223 31 64 255 0.125 0.75
-4.811302 7.054317 5.3670635 223 31 64 255 0.875 0.5
-4.811304 7.054317 1.8670635 223 31 64 255 0.875 0.75
-4.2279086 2.9444823 -3.636072 223 31 64 255 0.375 0
-4.2279086 4.9444823 -3.636072 223 31 64 255 0.625 0
-4.2279067 4.9444823 -0.13607204 223 31 64 255 0.625 0.25
-4.2279067 2.9444823 -0.13607204 223 31 64 255 0.375 0.25
-6.227906 4.9444823 -0.13607085 160 0 127 255 0.625 0.5
-6.227906 2.9444823 -0.13607085 160 0 127 255 0.375 0.5
-6.2279086 4.9444823 -3.636071 160 0 127 255 0.625 0.75
-6.2279086 2.9444823 -3.636071 160 0 127 255 0.375 0.75
-4.2279086 4.9444823 -3.636072 223 31 64 255 0.625 1
-4.2279086 2.9444823 -3.636072 223 31 64 255 0.375 1
-4.2279067 2.9444823 -0.13607204 223 31 64 255 0.125 0.5
-4.2279086 2.9444823 -3.636072 223 31 64 255 0.125 0.75
-4.2279067 4.9444823 -0.13607204 223 31 64 255 0.875 0.5
-4.2279086 4.9444823 -3.636072 223 31 64 255 0.875 0.75
-4.0686674 3.544475 -1.0161953 223 31 64 255 0.375 0
-4.0686674 5.544475 -1.0161953 223 31 64 255 0.625 0
-4.0686655 5.544475 2.4838045 223 31 64 255 0.625 0.25
-4.0686655 3.544475 2.4838045 223 31 64 255 0.375 0.25
-6.0686655 5.544475 2.4838057 223 31 64 255 0.625 0.5
-6.0686655 3.544475 2.4838057 223 31 64 255 0.375 0.5
-6.0686674 5.544475 -1.0161943 223 31 64 255 0.625 0.75
-6.0686674 3.544475 -1.0161943 223 31 64 255 0.375 0.75
-4.0686674 5.544475 -1.0161953 223 31 64 255 0.625 1
-4.0686674 3.544475 -1.0161953 223 31 64 255 0.375 1
-4.0686655 3.544475 2.4838045 223 31 64 255 0.125 0.5
-4.0686674 3.544475 -1.0161953 223 31 64 255 0.125 0.75
-4.0686655 5.544475 2.4838045 223 31 64 255 0.875 0.5
-4.0686674 5.544475 -1.0161953 223 31 64 255 0.875 0.75
-5.18976 4.0805016 2.9644647 223 31 64 255 0.375 0
-5.18976 6.0805016 2.9644647 223 31 64 255 0.625 0
-5.1897583 6.0805016 6.464465 223 31 64 255 0.625 0.25
-5.1897583 4.0805016 6.464465 223 31 64 255 0.375 0.25
-7.1897583 6.0805016 6.464466 160 0 127 255 0.625 0.5
-7.1897583 4.0805016 6.464466 160 0 127 255 0.375 0.5
-7.18976 6.0805016 2.9644659 160 0 127 255 0.625 0.75
-7.18976 4.0805016 2.9644659 160 0 127 255 0.375 0.75
-5.18976 6.0805016 2.9644647 223 31 64 255 0.625 1
-5.18976 4.0805016 2.9644647 223 31 64 255 0.375 1
-5.1897583 4.0805016 6.464465 223 31 64 255 0.125 0.5
-5.18976 4.0805016 2.9644647 223 31 64 255 0.125 0.75
-5.1897583 6.0805016 6.464465 223 31 64 255 0.875 0.5
-5.18976 6.0805016 2.9644647 223 31 64 255 0.875 0.75
0.0644505 5.1366005 5.053396 223 31 64 255 0.375 0
0.0644505 3.1366036 5.0570097 223 31 64 255 0.625 0
0.064448595 3.1302807 1.5570157 223 31 64 255 0.625 0.25
0.064448595 5.1302776 1.5534024 223 31 64 255 0.375 0.25
-1.9355513 3.1302807 1.5570168 223 31 64 255 0.625 0.5
-1.9355513 5.1302776 1.5534036 223 31 64 255 0.375 0.5
-1.9355494 3.1366036 5.0570107 223 31 64 255 0.625 0.75
-1.9355494 5.1366005 5.0533977 223 31 64 255 0.375 0.75
0.0644505 3.1366036 5.0570097 223 31 64 255 0.625 1
0.0644505 5.1366005 5.053396 223 31 64 255 0.375 1
0.064448595 5.1302776 1.5534024 223 31 64 255 0.125 0.5
0.0644505 5.1366005 5.053396 223 31 64 255 0.125 0.75
0.064448595 3.1302807 1.5570157 223 31 64 255 0.875 0.5
0.0644505 3.1366036 5.0570097 223 31 64 255 0.875 0.75
-0.12130451 5.2739596 0.7166807 223 31 64 255 0.375 0
-0.12130451 3.2739627 0.7202939 223 31 64 255 0.625 0
-0.12130642 3.2676399 -2.7797005 223 31 64 255 0.625 0.25
-0.12130642 5.2676363 -2.7833135 223 31 64 255 0.375 0.25
-2.1213067 3.2676399 -2.779699 223 31 64 255 0.625 0.5
-2.1213067 5.2676363 -2.783312 223 31 64 255 0.375 0.5
-2.1213045 3.2739627 0.720295 223 31 64 255 0.625 0.75
-2.1213045 5.2739596 0.71668184 223 31 64 255 0.375 0.75
-0.12130451 3.2739627 0.7202939 223 31 64 255 0.625 1
-0.12130451 5.2739596 0.7166807 223 31 64 255 0.375 1
-0.12130642 5.2676363 -2.7833135 223 31 64 255 0.125 0.5
-0.12130451 5.2739596 0.7166807 223 31 64 255 0.125 0.75
-0.12130642 3.2676399 -2.7797005 223 31 64 255 0.875 0.5
-0.12130451 3.2739627 0.7202939 223 31 64 255 0.875 0.75
0.4620967 7.393731 6.215996 160 0 127 255 0.375 0
0.4620967 5.3937345 6.2196093 160 0 127 255 0.625 0
0.46209478 5.3874116 2.7196145 215 29 76 255 0.625 0.25
0.46209478 7.3874083 2.7160015 160 0 127 255 0.375 0.25
-1.5379052 5.3874116 2.7196157 223 31 64 255 0.625 0.5
-1.5379052 7.3874083 2.7160025 160 0 127 255 0.375 0.5
-1.5379032 5.3937345 6.21961 160 0 127 255 0.625 0.75
-1.5379032 7.393731 6.2159967 160 0 127 255 0.375 0.75
0.4620967 5.3937345 6.2196093 160 0 127 255 0.625 1
0.4620967 7.393731 6.215996 160 0 127 255 0.375 1
0.46209478 7.3874083 2.7160015 160 0 127 255 0.125 0.5
0.4620967 7.393731 6.215996 160 0 127 255 0.125 0.75
0.46209478 5.3874116 2.7196145 215 29 76 255 0.875 0.5
0.4620967 5.3937345 6.2196093 160 0 127 255 0.875 0.75
0.62133527 6.789007 3.5972068 223 31 64 255 0.375 0
0.62133527 4.7890105 3.60082 223 31 64 255 0.625 0
0.6213331 4.782687 0.10082579 223 31 64 255 0.625 0.25
0.6213331 6.7826843 0.09721255 223 31 64 255 0.375 0.25
-1.3786668 4.782687 0.10082698 223 31 64 255 0.625 0.5
-1.3786668 6.7826843 0.097213745 223 31 64 255 0.375 0.5
-1.3786649 4.7890105 3.600821 223 31 64 255 0.625 0.75
-1.3786649 6.789007 3.5972078 223 31 64 255 0.375 0.75
0.62133527 4.7890105 3.60082 223 31 64 255 0.625 1
0.62133527 6.789007 3.5972068 223 31 64 255 0.375 1
0.6213331 6.7826843 0.09721255 223 31 64 255 0.125 0.5
0.62133527 6.789007 3.5972068 223 31 64 255 0.125 0.75
0.6213331 4.782687 0.10082579 223 31 64 255 0.875 0.5
0.62133527 4.7890105 3.60082 223 31 64 255 0.875 0.75
-0.49976206 6.2457914 -0.38247764 223 31 64 255 0.375 0
-0.49976206 4.2457943 -0.3788644 223 31 64 255 0.625 0
-0.49976397 4.2394714 -3.8788588 223 31 64 255 0.625 0.25
-0.49976397 6.239468 -3.8824713 223 31 64 255 0.375 0.25
-2.499764 4.2394714 -3.8788579 223 31 64 255 0.625 0.5
-2.499764 6.239468 -3.8824704 223 31 64 255 0.375 0.5
-2.499762 4.2457943 -0.37886333 223 31 64 255 0.625 0.75
-2.499762 6.2457914 -0.38247657 223 31 64 255 0.375 0.75
-0.49976206 4.2457943 -0.3788644 223 31 64 255 0.625 1
-0.49976206 6.2457914 -0.38247764 223 31 64 255 0.375 1
-0.49976397 6.239468 -3.8824713 223 31 64 255 0.125 0.5
-0.49976206 6.2457914 -0.38247764 223 31 64 255 0.125 0.75
-0.49976397 4.2394714 -3.8788588 223 31 64 255 0.875 0.5
-0.49976206 4.2457943 -0.3788644 223 31 64 255 0.875 0.75
-3.465045 5.0537434 -4.206444 218 30 70 255 0.375 0
-3.465045 7.0537434 -4.206444 223 31 64 255 0.625 0
0.034955025 7.0537434 -4.2064457 223 31 64 255 0.625 0.25
0.034955025 5.0537434 -4.2064457 223 31 64 255 0.375 0.25
0.034956217 7.0537434 -2.2064457 223 31 64 255 0.625 0.5
0.034956217 5.0537434 -2.2064457 223 31 64 255 0.375 0.5
-3.4650438 7.0537434 -2.2064433 223 31 64 255 0.625 0.75
-3.4650438 5.0537434 -2.2064433 223 31 64 255 0.375 0.75
-3.465045 7.0537434 -4.206444 223 31 64 255 0.625 1
-3.465045 5.0537434 -4.206444 218 30 70 255 0.375 1
0.034955025 5.0537434 -4.2064457 223 31 64 255 0.125 0.5
-3.465045 5.0537434 -4.206444 218 30 70 255 0.125 0.75
0.034955025 7.0537434 -4.2064457 223 31 64 255 0.875 0.5
-3.465045 7.0537434 -4.206444 223 31 64 255 0.875 0.75
-6.1170664 3.1664128 -4.206442 160 0 127 255 0.375 0
-6.1170664 5.166413 -4.206442 160 0 127 255 0.625 0
-2.6170664 5.166413 -4.206444 160 0 127 255 0.625 0.25
-2.6170664 3.1664128 -4.206444 160 0 127 255 0.375 0.25
-2.6170652 5.166413 -2.2064443 223 31 64 255 0.625 0.5
-2.6170652 3.1664128 -2.2064443 223 31 64 255 0.375 0.5
-6.1170654 5.166413 -2.2064416 160 0 127 255 0.625 0.75
-6.1170654 3.1664128 -2.2064416 223 31 64 255 0.375 0.75
-6.1170664 5.166413 -4.206442 160 0 127 255 0.625 1
-6.1170664 3.1664128 -4.206442 160 0 127 255 0.375 1
-2.6170664 3.1664128 -4.206444 160 0 127 255 0.125 0.5
-6.1170664 3.1664128 -4.206442 160 0 127 255 0.125 0.75
-2.6170664 5.166413 -4.206444 160 0 127 255 0.875 0.5
-6.1170664 5.166413 -4.206442 160 0 127 255 0.875 0.75
-6.1170607 4.6909146 5.2767963 223 31 64 255 0.375 0
-6.1170607 6.6909146 5.2767963 223 31 64 255 0.625 0
-2.617061 6.6909146 5.2767935 223 31 64 255 0.625 0.25
-2.617061 4.6909146 5.2767935 223 31 64 255 0.375 0.25
-2.6170597 6.6909146 7.2767935 223 31 64 255 0.625 0.5
-2.6170597 4.6909146 7.2767935 223 31 64 255 0.375 0.5
-6.1170597 6.6909146 7.2767954 223 31 64 255 0.625 0.75
-6.1170597 4.6909146 7.2767954 223 31 64 255 0.375 0.75
-6.1170607 6.6909146 5.2767963 223 31 64 255 0.625 1
-6.1170607 4.6909146 5.2767963 223 31 64 255 0.375 1
-2.617061 4.6909146 5.2767935 223 31 64 255 0.125 0.5
-6.1170607 4.6909146 5.2767963 223 31 64 255 0.125 0.75
-2.617061 6.6909146 5.2767935 223 31 64 255 0.875 0.5
-6.1170607 6.6909146 5.2767963 223 31 64 255 0.875 0.75
-3.7325196 3.4562669 4.65407 223 31 64 255 0.375 0
-3.7325196 5.456267 4.65407 223 31 64 255 0.625 0
-0.23251939 5.456267 4.6540675 223 31 64 255 0.625 0.25
-0.23251939 3.4562669 4.6540675 223 31 64 255 0.375 0.25
-0.2325182 5.456267 6.654067 223 31 64 255 0.625 0.5
-0.2325182 3.4562669 6.654067 223 31 64 255 0.375 0.5
-3.7325184 5.456267 6.654069 223 31 64 255 0.625 0.75
-3.7325184 3.4562669 6.654069 223 31 64 255 0.375 0.75
-3.7325196 5.456267 4.65407 223 31 64 255 0.625 1
-3.7325196 3.4562669 4.65407 223 31 64 255 0.375 1
-0.23251939 3.4562669 4.6540675 223 31 64 255 0.125 0.5
-3.7325196 3.4562669 4.65407 223 31 64 255 0.125 0.75
-0.23251939 5.456267 4.6540675 223 31 64 255 0.875 0.5
-3.7325196 5.456267 4.65407 223 31 64 255 0.875 0.75
-2.1573112 6.1372857 -2.154691 0 0 0 0 0.375 0
-2.1573112 8.137285 -2.154691 223 31 64 255 0.625 0
-2.1573088 8.137285 2.1546898 223 31 64 255 0.625 0.25
-2.1573088 6.1372857 2.1546898 0 0 0 0 0.375 0.25
-4.1573086 8.137285 2.154691 223 31 64 255 0.625 0.5
-4.1573086 6.1372857 2.154691 0 0 0 0 0.375 0.5
-4.157311 8.137285 -2.1546898 223 31 64 255 0.625 0.75
-4.157311 6.1372857 -2.1546898 0 0 0 0 0.375 0.75
-2.1573112 8.137285 -2.154691 223 31 64 255 0.625 1
-2.1573112 6.1372857 -2.154691 0 0 0 0 0.375 1
-2.1573088 6.1372857 2.1546898 0 0 0 0 0.125 0.5
-2.1573112 6.1372857 -2.154691 0 0 0 0 0.125 0.75
-2.1573088 8.137285 2.1546898 223 31 64 255 0.875 0.5
-2.1573112 8.137285 -2.154691 223 31 64 255 0.875 0.75
-1.1893594 6.457798 0.90081614 0 0 0 0 0.375 0
-1.1893594 8.457798 0.90081614 223 31 64 255 0.625 0
-1.189357 8.457798 5.210197 223 31 64 255 0.625 0.25
-1.189357 6.457798 5.210197 0 0 0 0 0.375 0.25
-3.1893568 8.457798 5.2101984 223 31 64 255 0.625 0.5
-3.1893568 6.457798 5.2101984 0 0 0 0 0.375 0.5
-3.1893592 8.457798 0.9008173 223 31 64 255 0.625 0.75
-3.1893592 6.457798 0.9008173 0 0 0 0 0.375 0.75
-1.1893594 8.457798 0.90081614 223 31 64 255 0.625 1
-1.1893594 6.457798 0.90081614 0 0 0 0 0.375 1
-1.189357 6.457798 5.210197 0 0 0 0 0.125 0.5
-1.1893594 6.457798 0.90081614 0 0 0 0 0.125 0.75
-1.189357 8.457798 5.210197 223 31 64 255 0.875 0.5
-1.1893594 8.457798 0.90081614 223 31 64 255 0.875 0.75
-3.261283 5.6769056 0.90081733 0 0 0 0 0.375 0
-3.261283 7.6769056 0.90081733 223 31 64 255 0.625 0
-3.2612805 7.6769056 5.2101984 223 31 64 255 0.625 0.25
-3.2612805 5.6769056 5.2101984 0 0 0 0 0.375 0.25
-5.2612805 7.6769056 5.2101994 223 31 64 255 0.625 0.5
-5.2612805 5.6769056 5.2101994 0 0 0 0 0.375 0.5
-5.261283 7.6769056 0.90081847 223 31 64 255 0.625 0.75
-5.261283 5.6769056 0.90081847 0 0 0 0 0.375 0.75
-3.261283 7.6769056 0.90081733 223 31 64 255 0.625 1
-3.261283 5.6769056 0.90081733 0 0 0 0 0.375 1
-3.2612805 5.6769056 5.2101984 0 0 0 0 0.125 0.5
-3.261283 5.6769056 0.90081733 0 0 0 0 0.125 0.75
-3.2612805 7.6769056 5.2101984 223 31 64 255 0.875 0.5
-3.261283 7.6769056 0.90081733 223 31 64 255 0.875 0.75
4 0 1 2 3
4 4 5 6 7
4 8 9 10 11
4 12 13 14 15
4 16 17 18 19
4 20 21 22 23
4 24 25 26 27
4 27 26 28 29
4 29 28 30 31
4 31 30 32 33
4 34 29 31 35
4 28 36 37 30
4 38 39 40 41
4 41 40 42 43
4 43 42 44 45
4 45 44 46 47
4 48 43 45 49
4 42 50 51 44
4 52 53 54 55
4 55 54 56 57
4 57 56 58 59
4 59 58 60 61
4 62 57 59 63
4 56 64 65 58
4 66 67 68 69
4 69 68 70 71
4 71 70 72 73
4 73 72 74 75
4 76 71 73 77
4 70 78 79 72
4 80 81 82 83
4 83 82 84 85
4 85 84 86 87
4 87 86 88 89
4 90 85 87 91
4 84 92 93 86
4 94 95 96 97
4 97 96 98 99
4 99 98 100 101
4 101 100 102 103
4 104 99 101 105
4 98 106 107 100
4 108 109 110 111
4 111 110 112 113
4 113 112 114 115
4 115 114 116 117
4 118 113 115 119
4 112 120 121 114
4 122 123 124 125
4 125 124 126 127
4 127 126 128 129
4 129 128 130 131
4 132 127 129 133
4 126 134 135 128
4 136 137 138 139
4 139 138 140 141
4 141 140 142 143
4 143 142 144 145
4 146 141 143 147
4 140 148 149 142
4 150 151 152 153
4 153 152 154 155
4 155 154 156 157
4 157 156 158 159
4 160 155 157 161
4 154 162 163 156
4 164 165 166 167
4 167 166 168 169
4 169 168 170 171
4 171 170 172 173
4 174 169 171 175
4 168 176 177 170
4 178 179 180 181
4 181 180 182 183
4 183 182 184 185
4 185 184 186 187
4 188 183 185 189
4 182 190 191 184
4 192 193 194 195
4 195 194 196 197
4 197 196 198 199
4 199 198 200 201
4 202 197 199 203
4 196 204 205 198
4 206 207 208 209
4 209 208 210 211
4 211 210 212 213
4 213 212 214 215
4 216 211 213 217
4 210 218 219 212
4 220 221 222 223
4 223 222 224 225
4 225 224 226 227
4 227 226 228 229
4 230 225 227 231
4 224 232 233 226
4 234 235 236 237
4 237 236 238 239
4 239 238 240 241
4 241 240 242 243
4 244 239 241 245
4 238 246 247 240
4 248 249 250 251
4 251 250 252 253
4 253 252 254 255
4 255 254 256 257
4 258 253 255 259
4 252 260 261 254
4 262 263 264 265
4 265 264 266 267
4 267 266 268 269
4 269 268 270 271
4 272 267 269 273
4 266 274 275 268
4 276 277 278 279
4 279 278 280 281
4 281 280 282 283
4 283 282 284 285
4 286 281 283 287
4 280 288 289 282
4 290 291 292 293
4 293 292 294 295
4 295 294 296 297
4 297 296 298 299
4 300 295 297 301
4 294 302 303 296
4 304 305 306 307
4 307 306 308 309
4 309 308 310 311
4 311 310 312 313
4 314 309 311 315
4 308 316 317 310
4 318 319 320 321
4 321 320 322 323
4 323 322 324 325
4 325 324 326 327
4 328 323 325 329
4 322 330 331 324
4 332 333 334 335
4 335 334 336 337
4 337 336 338 339
4 339 338 340 341
4 342 337 339 343
4 336 344 345 338
4 346 347 348 349
4 349 348 350 351
4 351 350 352 353
4 353 352 354 355
4 356 351 353 357
4 350 358 359 352
4 360 361 362 363
4 363 362 364 365
4 365 364 366 367
4 367 366 368 369
4 370 365 367 371
4 364 372 373 366
